HIERARCHY
ROOT Hips
{
  OFFSET 0.000000 0.000000 0.000000
  CHANNELS 6 Xposition Yposition Zposition Xrotation Yrotation Zrotation
  JOINT Spine
  {
    OFFSET -0.205965 -24.117554 -2.855246
    CHANNELS 3 Xrotation Yrotation Zrotation
    JOINT Chest
    {
      OFFSET -0.205965 -24.117554 -2.855246
      CHANNELS 3 Xrotation Yrotation Zrotation
      JOINT Neck
      {
        OFFSET 1.732829 -16.074595 -7.583521
        CHANNELS 3 Xrotation Yrotation Zrotation
        JOINT Head
        {
          OFFSET 6.789161 6.150123 9.544352
          CHANNELS 3 Xrotation Yrotation Zrotation
          End Site
          {
            OFFSET 0.0 5.0 2.0
          }
        }
      }
      JOINT LeftShoulder
      {
        OFFSET 15.604512 -0.032207 6.266379
        CHANNELS 3 Xrotation Yrotation Zrotation
        JOINT LeftArm
        {
          OFFSET 2.117507 21.582690 -7.440646
          CHANNELS 3 Xrotation Yrotation Zrotation
          JOINT LeftForeArm
          {
            OFFSET 5.693942 -7.733226 -20.629920
            CHANNELS 3 Xrotation Yrotation Zrotation
            JOINT LeftHand
            {
              OFFSET -4.902903 0.000000 0.980581
              CHANNELS 3 Xrotation Yrotation Zrotation
              End Site
              {
                OFFSET -3.0 0.0 2.0
              }
            }
          }
        }
      }
      JOINT RightShoulder
      {
        OFFSET -15.604512 0.032207 -6.266379
        CHANNELS 3 Xrotation Yrotation Zrotation
        JOINT RightArm
        {
          OFFSET 6.056690 21.053639 -10.595787
          CHANNELS 3 Xrotation Yrotation Zrotation
          JOINT RightForeArm
          {
            OFFSET 15.767041 -11.724293 -14.774765
            CHANNELS 3 Xrotation Yrotation Zrotation
            JOINT RightHand
            {
              OFFSET 3.626143 -3.008373 1.899500
              CHANNELS 3 Xrotation Yrotation Zrotation
              End Site
              {
                OFFSET 3.0 0.0 2.0
              }
            }
          }
        }
      }
    }
  }
  JOINT LeftUpLeg
  {
    OFFSET 11.724548 -0.681192 2.472502
    CHANNELS 3 Xrotation Yrotation Zrotation
    JOINT LeftLeg
    {
      OFFSET 4.915397 39.653457 -7.804750
      CHANNELS 3 Xrotation Yrotation Zrotation
      JOINT LeftFoot
      {
        OFFSET 0.919454 32.950714 11.764636
        CHANNELS 3 Xrotation Yrotation Zrotation
        JOINT LeftToeBase
        {
          OFFSET 5.590172 -1.000000 8.000000
          CHANNELS 3 Xrotation Yrotation Zrotation
          End Site
          {
            OFFSET 0.0 -1.0 3.0
          }
        }
      }
    }
  }
  JOINT RightUpLeg
  {
    OFFSET -11.724548 0.681192 -2.472502
    CHANNELS 3 Xrotation Yrotation Zrotation
    JOINT RightLeg
    {
      OFFSET 3.727733 39.810915 4.032837
      CHANNELS 3 Xrotation Yrotation Zrotation
      JOINT RightFoot
      {
        OFFSET 4.493247 31.053177 19.561110
        CHANNELS 3 Xrotation Yrotation Zrotation
        JOINT RightToeBase
        {
          OFFSET -3.350082 -1.000000 8.000000
          CHANNELS 3 Xrotation Yrotation Zrotation
          End Site
          {
            OFFSET 0.0 -1.0 3.0
          }
        }
      }
    }
  }
}
MOTION
Frames: 10
Frame Time: 0.066667
0.000000 0.000000 0.000000 0.000000 0.000000 0.000000 0.000000 0.000000 0.000000 0.000000 0.000000 0.000000 -93.498812 47.774201 -50.419726 0.000000 0.000000 0.000000 0.000000 0.000000 0.000000 0.000000 0.000000 0.000000 -72.206641 -52.545158 131.856500 0.000000 0.000000 0.000000 0.000000 0.000000 0.000000 0.000000 0.000000 0.000000 31.580930 32.261960 9.351550 0.000000 0.000000 0.000000 0.000000 0.000000 0.000000 0.000000 0.000000 0.000000 -44.113319 5.966700 29.658426 0.000000 0.000000 0.000000 0.000000 0.000000 0.000000 0.000000 0.000000 0.000000 -51.533583 -6.699192 -19.845138 0.000000 0.000000 0.000000
0.000000 0.000000 0.000000 0.045437 0.010291 -0.212737 0.335527 0.279709 -2.328514 0.097503 0.261831 -0.242614 -94.856510 47.737944 -49.784199 0.000000 0.000000 0.000000 0.141331 -1.780676 -5.165356 2.594456 0.375690 0.578442 -68.086579 -54.423599 125.199618 0.000000 0.000000 0.000000 -1.755928 1.483737 1.851544 0.980525 0.148159 0.922544 32.052094 32.602708 10.105023 0.000000 0.000000 0.000000 0.035082 -0.416490 -2.101944 7.184862 -0.866254 1.538138 -48.109639 13.526705 31.435356 0.000000 0.000000 0.000000 0.086650 -0.107639 0.974262 1.983869 -0.564556 0.418730 -54.678261 -13.083276 -19.156481 0.000000 0.000000 0.000000
0.000000 0.000000 0.000000 0.061182 -0.019193 -0.295231 1.385330 0.512681 -4.013847 -0.032507 0.650209 0.085312 -95.661204 47.712297 -50.109837 0.000000 0.000000 0.000000 1.886044 -1.351366 -3.587696 2.202270 -1.327082 1.075544 -72.621275 -51.785832 133.448650 0.000000 0.000000 0.000000 -0.222857 3.016860 5.748906 1.057041 -0.872549 1.813737 30.443089 31.426966 9.645000 0.000000 0.000000 0.000000 0.492906 -0.613500 -2.881329 5.534092 0.149070 -0.742690 -44.634248 13.859537 29.245574 0.000000 0.000000 0.000000 4.173957 -0.709755 2.285249 1.781386 -1.544581 1.964170 -52.656432 -14.311419 -18.103494 0.000000 0.000000 0.000000
0.000000 0.000000 0.000000 0.102269 0.756628 -0.284808 3.934942 0.568883 -3.929024 -0.033685 8.067771 0.149251 -107.328463 47.028417 -54.301354 0.000000 0.000000 0.000000 2.572943 -1.306108 -3.311285 24.849351 -0.532745 6.513276 140.029198 -59.178882 -162.836070 0.000000 0.000000 0.000000 0.703623 6.615617 13.265391 11.829765 5.503114 7.812829 35.714820 34.445286 26.703460 0.000000 0.000000 0.000000 0.749518 -1.063269 -5.134522 3.075057 2.183519 -5.860802 -38.081553 17.768458 24.966179 0.000000 0.000000 0.000000 4.867625 -1.226122 5.278047 0.449839 -1.455533 2.181506 -49.869897 -17.166360 -16.401915 0.000000 0.000000 0.000000
0.000000 0.000000 0.000000 0.199910 1.666530 -0.522149 5.915135 0.644756 -4.065094 0.472686 8.230514 -1.340930 -104.065559 47.294445 -52.907755 0.000000 0.000000 0.000000 -3.164055 -3.494845 -10.188001 27.655827 -3.709531 7.615717 129.076445 -61.489017 -155.910427 0.000000 0.000000 0.000000 -1.764317 9.728807 16.760554 19.538936 10.656190 11.621302 42.382225 36.806378 37.328653 0.000000 0.000000 0.000000 -0.374441 -1.061874 -5.563239 -3.648841 3.842137 -11.634353 -35.291350 16.094191 23.412992 0.000000 0.000000 0.000000 6.540853 -1.694612 6.698393 0.567080 -2.244964 3.380194 -48.913032 -18.958303 -15.622301 0.000000 0.000000 0.000000
0.000000 0.000000 0.000000 0.237660 2.240535 -0.556925 5.789670 0.631381 -4.006997 1.066380 8.092603 -3.080681 -104.192636 47.259675 -53.361300 0.000000 0.000000 0.000000 -7.260313 -6.052886 -16.362268 29.503294 -1.076779 7.695650 122.092451 -67.680935 -146.539006 0.000000 0.000000 0.000000 -0.617425 9.502336 17.367076 21.514208 10.946098 13.194311 43.863674 37.205234 39.291700 0.000000 0.000000 0.000000 -0.262510 -1.149146 -5.964167 -5.495713 4.037063 -12.783489 -34.391933 15.068878 22.922483 0.000000 0.000000 0.000000 6.930070 -1.805657 7.002021 -0.145363 -2.291302 3.663511 -49.096151 -18.548805 -15.788333 0.000000 0.000000 0.000000
0.000000 0.000000 0.000000 0.227085 1.810753 -0.621212 10.747084 0.551832 -3.001728 3.021868 -1.418568 -7.335990 -99.907260 47.451430 -53.771705 0.000000 0.000000 0.000000 -0.557397 -29.187578 -77.566976 -2.368645 -45.113711 20.486144 158.202206 -22.786176 -179.965287 0.000000 0.000000 0.000000 -7.299399 12.171540 16.157827 20.443908 5.898266 15.292710 39.307912 35.176463 42.571805 0.000000 0.000000 0.000000 6.878764 -1.278994 -3.253662 1.559051 4.173303 -11.321430 -33.945273 12.115317 22.773869 0.000000 0.000000 0.000000 7.018087 -2.303501 9.893272 2.600365 -5.934857 8.285412 -47.796559 -16.739181 -15.896719 0.000000 0.000000 0.000000
0.000000 0.000000 0.000000 0.224292 2.032771 -0.545708 9.632747 0.507159 -2.884533 3.343969 3.117958 -8.804268 -92.729383 47.789344 -48.590303 0.000000 0.000000 0.000000 -25.016731 -20.819524 -38.472988 18.141130 -11.850875 7.368437 -172.003464 -57.617888 176.851381 0.000000 0.000000 0.000000 -5.795246 11.415854 16.185102 19.884394 10.936200 11.763932 43.027795 37.000579 38.040008 0.000000 0.000000 0.000000 2.978189 -0.587169 -1.298014 4.819561 4.489527 -11.415826 -34.334355 10.315145 23.089047 0.000000 0.000000 0.000000 7.378949 -3.085535 14.036148 6.642700 -6.456321 7.551915 -49.735898 -22.127898 -14.931514 0.000000 0.000000 0.000000
0.000000 0.000000 0.000000 0.198331 1.833552 -0.467830 8.949308 0.504043 -2.928847 2.254263 2.729929 -5.891829 -86.589073 47.726954 -44.071164 0.000000 0.000000 0.000000 -13.518337 -9.159364 -21.983835 16.993668 7.971283 2.719738 -115.612055 -76.313683 132.741230 0.000000 0.000000 0.000000 -4.293376 9.990886 15.094180 15.964161 6.837588 10.755326 34.686226 33.925625 26.105409 0.000000 0.000000 0.000000 2.740242 -0.473064 -0.786277 5.439035 3.011401 -7.697328 -33.996823 19.350343 22.498926 0.000000 0.000000 0.000000 7.245937 -3.249416 15.155885 8.855739 -9.043493 10.179483 -49.828638 -22.312285 -14.900079 0.000000 0.000000 0.000000
0.000000 0.000000 0.000000 0.069370 0.474063 -0.202054 6.077078 0.284451 -1.951469 1.732379 -2.834715 -4.116534 -78.397388 46.940817 -35.974324 0.000000 0.000000 0.000000 -18.117809 -5.582350 -14.089810 24.730470 16.979183 3.801223 39.570915 -77.669471 -53.025054 0.000000 0.000000 0.000000 -6.311827 4.562018 4.595329 2.812216 -10.373210 11.880407 27.349977 29.640099 19.615513 0.000000 0.000000 0.000000 1.947577 -0.173979 0.372309 5.228096 2.314087 -6.019042 -37.436861 15.943043 24.703267 0.000000 0.000000 0.000000 7.525403 -3.258731 14.835771 10.771265 -11.572306 12.615690 -56.144292 -20.959876 -16.996280 0.000000 0.000000 0.000000
